<svg version="1.1" xmlns="http://www.w3.org/2000/svg" xmlns:xlink="http://www.w3.org/1999/xlink" x="0px" y="0px"
	 viewBox="0 0 512 512" style="enable-background:new 0 0 512 512;" xml:space="preserve">
	<path d="M489.1,212.3l-90.5-90.4c-1.9-1.9-4.4-2.9-7.1-2.9h-21.7l25.7-25.7c3.9-3.9,3.9-10.2,0-14.1L319.4,2.9
	c-3.9-3.9-10.2-3.9-14.1,0l-31.6,31.6L189,119.1c-0.4-0.1-0.9-0.1-1.4-0.1h-67.3c-2.7,0-5.2,1.1-7.1,2.9l-90.4,90.4v0
	c-1.8,1.8-2.9,4.3-2.9,7.1V502c0,5.5,4.5,10,10,10h452c5.5,0,10-4.5,10-10V400.7c0-5.5-4.5-10-10-10s-10,4.5-10,10V492H40V229.4h432
	v91.3c0,5.5,4.5,10,10,10s10-4.5,10-10V219.4C492,216.7,490.9,214.2,489.1,212.3z M287.7,48.7l24.6-24.6l62,62.1l-78,78H214
	l-20.9-20.9L287.7,48.7z M54.1,209.4l70.4-70.4h45.4c-1.8,3.7-1.2,8.3,1.9,11.4l13.8,13.8h-31.5c-5.5,0-10,4.5-10,10
	c0,5.5,4.5,10,10,10h203.7c5.5,0,10-4.5,10-10c0-5.5-4.5-10-10-10h-33.2l25.2-25.2h37.5l70.5,70.4H54.1z"/>
	<path d="M482,350.7c-2.6,0-5.2,1.1-7.1,2.9c-1.9,1.9-2.9,4.4-2.9,7.1c0,2.6,1.1,5.2,2.9,7.1c1.9,1.9,4.4,2.9,7.1,2.9
	c2.6,0,5.2-1.1,7.1-2.9c1.9-1.9,2.9-4.4,2.9-7.1c0-2.6-1.1-5.2-2.9-7.1C487.2,351.8,484.6,350.7,482,350.7z"/>
</svg>
