<?xml version="1.0" encoding="utf-8"?>
<!-- Generator: Adobe Illustrator 24.0.2, SVG Export Plug-In . SVG Version: 6.00 Build 0)  -->
<svg version="1.1" id="Layer_1" xmlns="http://www.w3.org/2000/svg" xmlns:xlink="http://www.w3.org/1999/xlink" x="0px" y="0px"
	 viewBox="0 0 192 42" style="enable-background:new 0 0 192 42;" xml:space="preserve">
<style type="text/css">
	.st0{fill:#CCCCCC;}
	.st1{fill:#05B7F1;}
</style>
<g>
	<path class="st0" d="M1.74,37.68C0.78,37.08,0,36,0,34.56c0-2.04,1.56-3.6,3.6-3.6c0.66,0,1.32,0.18,1.8,0.48
		c3.06,1.92,6.12,2.88,8.7,2.88c2.64,0,3.84-0.96,3.84-2.4V31.8c0-1.98-3.12-2.64-6.66-3.72c-4.5-1.32-9.6-3.42-9.6-9.66V18.3
		c0-6.54,5.28-10.2,11.76-10.2c3.36,0,6.84,0.9,9.96,2.46c1.32,0.66,2.16,1.86,2.16,3.42c0,2.04-1.62,3.6-3.66,3.6
		c-0.66,0-1.08-0.12-1.68-0.42c-2.58-1.26-5.04-2.04-6.96-2.04c-2.22,0-3.36,0.96-3.36,2.22v0.12c0,1.8,3.06,2.64,6.54,3.84
		c4.5,1.5,9.72,3.66,9.72,9.54v0.12c0,7.14-5.34,10.38-12.3,10.38C9.9,41.34,5.64,40.2,1.74,37.68z"/>
	<path class="st0" d="M31.14,24.84v-0.12c0-9.24,7.44-16.74,17.46-16.74c9.96,0,17.34,7.38,17.34,16.62v0.12
		c0,9.24-7.44,16.74-17.46,16.74C38.52,41.46,31.14,34.08,31.14,24.84z M56.94,24.84v-0.12c0-4.74-3.42-8.88-8.46-8.88
		c-5.22,0-8.34,4.02-8.34,8.76v0.12c0,4.74,3.42,8.88,8.46,8.88C53.82,33.6,56.94,29.58,56.94,24.84z"/>
	<path class="st0" d="M72.54,12.78c0-2.52,2.04-4.56,4.56-4.56s4.56,2.04,4.56,4.56v1.44c1.32-3.12,3.48-6,6.18-6
		c2.82,0,4.44,1.86,4.44,4.44c0,2.4-1.56,3.84-3.42,4.26c-4.62,1.08-7.2,4.62-7.2,11.1v8.52c0,2.52-2.04,4.56-4.56,4.56
		s-4.56-2.04-4.56-4.56V12.78z"/>
	<path class="st1" d="M99.12,31.62V16.38h-0.3c-2.16,0-3.9-1.74-3.9-3.9c0-2.16,1.74-3.9,3.9-3.9h0.3V4.56
		c0-2.52,2.04-4.56,4.56-4.56s4.56,2.04,4.56,4.56v4.02h4.02c2.16,0,3.9,1.74,3.9,3.9c0,2.16-1.74,3.9-3.9,3.9h-4.02v13.74
		c0,2.1,0.9,3.12,2.94,3.12c0.3,0,0.9-0.06,1.08-0.06c2.04,0,3.78,1.68,3.78,3.78c0,1.62-1.08,2.94-2.34,3.42
		c-1.68,0.66-3.24,0.9-5.22,0.9C102.9,41.28,99.12,39.06,99.12,31.62z"/>
	<path class="st1" d="M136.86,41.46c-9.66,0-16.8-6.78-16.8-16.62v-0.12c0-9.18,6.54-16.74,15.9-16.74
		c10.74,0,15.48,8.82,15.48,15.48c0,2.64-1.86,4.38-4.26,4.38h-18.06c0.9,4.14,3.78,6.3,7.86,6.3c2.52,0,4.62-0.78,6.48-2.16
		c0.66-0.48,1.26-0.72,2.22-0.72c2.04,0,3.54,1.56,3.54,3.6c0,1.2-0.54,2.1-1.2,2.7C145.2,39.96,141.54,41.46,136.86,41.46z
		 M142.74,22.14c-0.54-4.08-2.94-6.84-6.78-6.84c-3.78,0-6.24,2.7-6.96,6.84H142.74z"/>
	<path class="st1" d="M156.84,24.84v-0.12c0-9.24,7.44-16.74,17.46-16.74c9.96,0,17.34,7.38,17.34,16.62v0.12
		c0,9.24-7.44,16.74-17.46,16.74C164.22,41.46,156.84,34.08,156.84,24.84z M182.64,24.84v-0.12c0-4.74-3.42-8.88-8.46-8.88
		c-5.22,0-8.34,4.02-8.34,8.76v0.12c0,4.74,3.42,8.88,8.46,8.88C179.52,33.6,182.64,29.58,182.64,24.84z"/>
</g>
</svg>
